<svg id="Capa_1" enable-background="new 0 0 512 512" height="512" viewBox="0 0 512 512" width="512" xmlns="http://www.w3.org/2000/svg"><g><g><path d="m210.161 371.095 254.44-143.029 39.898 17.314-6.775 45.92-266.485 100.873z" fill="#b1e4f9"/></g><g><path d="m187.577 348.512 228.846-186.69 48.178 15.055v51.189l-254.44 143.029z" fill="#d3effb"/></g><g><path d="m140.905 301.839 143.029-254.44-17.314-39.898-45.92 6.775-100.873 266.485z" fill="#b1e4f9"/></g><g><path d="m163.488 324.423 186.69-228.846-15.055-48.178h-51.189l-143.029 254.44z" fill="#d3effb"/></g><g><path d="m171.016 476.485c-37.417 37.418-98.083 37.418-135.501 0-37.417-37.417-37.417-98.083 0-135.501l48.178-48.178 135.501 135.501z" fill="#f4fbff"/></g><g><path d="m197.364 406.476-48.178 48.178c-33.701 33.701-86.258 37.042-123.706 10.036 2.978 4.129 6.319 8.078 10.036 11.795 37.417 37.417 98.083 37.417 135.501 0l48.178-48.178z" fill="#d3effb"/></g><g><path d="m19.497 379.656h191.627v34.067h-191.627z" fill="#df75a5" transform="matrix(.707 .707 -.707 .707 314.276 34.651)"/></g><g><path d="m155.112 438.088h34.067v30.873h-34.067z" fill="#dd5790" transform="matrix(.707 -.707 .707 .707 -270.27 254.56)"/></g><g><path d="m175.533 336.467-12.045-12.044 186.69-228.846 55.706 10.539 10.539 55.706-228.846 186.69z" fill="#f4fbff"/></g><path d="m507.484 238.5-35.378-15.353v-46.27c0-3.281-2.132-6.181-5.264-7.16l-43.885-13.709-9.703-51.287c-.573-3.031-2.945-5.402-5.975-5.975l-51.284-9.703-13.714-43.882c-.979-3.131-3.878-5.263-7.159-5.263h-46.262l-15.363-35.384c-1.352-3.111-4.624-4.926-7.974-4.433l-45.913 6.77c-2.692.397-4.958 2.221-5.921 4.765l-24.553 64.866c-1.466 3.874.485 8.204 4.36 9.671.874.33 1.772.487 2.655.487 3.028 0 5.88-1.847 7.016-4.847l22.992-60.744 35.868-5.29 13.548 31.204-136.361 242.577-10.661-10.66 62.221-164.353c1.466-3.874-.485-8.204-4.36-9.671-3.87-1.462-8.204.484-9.671 4.36l-63.369 167.39-17.636 17.636-6.74-6.74c-2.93-2.928-7.678-2.928-10.608 0l-48.159 48.158c-.007.007-.014.012-.02.018-.009.009-.016.018-.024.027-40.256 40.285-40.248 105.809.025 146.083 20.141 20.141 46.597 30.212 73.054 30.212 26.445 0 52.89-10.062 73.029-30.185.009-.009.018-.016.027-.024.007-.007.012-.014.018-.02l48.159-48.159c2.929-2.93 2.929-7.678 0-10.608l-6.74-6.74 17.644-17.644 264.976-100.302c2.544-.964 4.368-3.229 4.765-5.92l6.775-45.919c.495-3.359-1.323-6.629-4.435-7.979zm-99.261-79.669-220.135 179.584-14.503-14.503 179.584-220.135 46.295 8.759zm-246.17 201.725 13.48-13.48 15.74 15.739-13.481 13.481zm-26.348-26.348 13.48-13.48 15.74 15.739-13.48 13.48zm152.616-279.309h41.287l12.207 39.063-178.892 219.287-12.693-12.692zm-168.493 236.47 18.749 18.75-13.48 13.48-18.75-18.75zm-79.008 179.811c-32.646-32.645-34.318-84.686-5.063-119.347l70.541 70.541c1.465 1.464 3.385 2.196 5.304 2.196s3.839-.732 5.304-2.196c2.929-2.93 2.929-7.678 0-10.608l-70.782-70.782 13.481-13.481 124.893 124.893-13.481 13.48-29.358-29.358c-2.93-2.928-7.678-2.928-10.608 0-2.929 2.93-2.929 7.678 0 10.608l29.117 29.117c-34.662 29.257-86.703 27.584-119.348-5.063zm154.286-29.393-124.893-124.893 13.481-13.481 124.893 124.893zm-6.706-54.884 13.481-13.481 18.749 18.751-13.48 13.48zm302.547-101.057-257.831 97.597-10.656-10.656 94.176-52.938c3.612-2.03 4.893-6.603 2.864-10.214-2.03-3.612-6.602-4.893-10.214-2.864l-97.842 54.998-12.693-12.693 219.283-178.889 39.071 12.205v41.281l-117.307 65.946c-3.611 2.03-4.892 6.603-2.863 10.215 1.377 2.448 3.923 3.826 6.546 3.826 1.244 0 2.507-.31 3.669-.963l117.879-66.268 31.21 13.544z"/></g></svg>