<svg id="Capa_1" enable-background="new 0 0 512 512" height="512" viewBox="0 0 512 512" width="512" xmlns="http://www.w3.org/2000/svg"><g><g><path d="m0 256c0 43.79 11 85.02 30.39 121.07l225.61 49.67 225.61-49.67c19.39-36.05 30.39-77.28 30.39-121.07 0-46.63-12.47-90.34-34.26-128-41.698 72.091-399.22 76.52-443.48 0-21.79 37.66-34.26 81.37-34.26 128z" fill="#78cd8a"/><path d="m34.26 128c44.26 76.52 126.99 128 221.74 128s177.48-51.48 221.74-128c-.01-.02-.03-.05-.04-.07-44.27-76.48-126.98-127.93-221.7-127.93s-177.43 51.45-221.7 127.93c-.01.02-.03.05-.04.07z" fill="#a8ea58"/><path d="m30.39 377.07c43.19 80.32 128.02 134.93 225.61 134.93s182.42-54.61 225.61-134.93z" fill="#599d89"/></g><g><path d="m155.133 281.822h30.073v190.63h-30.073z" fill="#616679" transform="matrix(.707 .707 -.707 .707 316.518 -9.867)"/><path d="m167.968 287.139h15.036v190.63h-15.036z" fill="#464651" transform="matrix(.707 .707 -.707 .707 321.834 -12.069)"/><path d="m111.436 372.746h42.144v84.106h-42.144z" fill="#f5dc6e" transform="matrix(.707 .707 -.707 .707 332.118 27.795)"/><path d="m129.422 380.196h21.072v84.106h-21.072z" fill="#eebf36" transform="matrix(.707 .707 -.707 .707 339.568 24.709)"/><g><path d="m402.459 305.933 13.297-13.297-24.679-24.679 19.513-19.513 21.993 21.993 13.297-13.297-21.993-21.993 19.513-19.513 4.341 4.341 13.297-13.297-4.341-4.341 3.61-3.61-13.297-13.297-3.61 3.61-19.513-19.513 18.722-18.722-13.297-13.297-18.722 18.722-19.513-19.513 18.722-18.722-13.297-13.297-18.722 18.722-19.513-19.513 3.61-3.61-13.297-13.297-3.61 3.61-4.341-4.341-13.297 13.297 4.341 4.341-19.513 19.513-21.993-21.993-13.297 13.297 21.993 21.993-19.513 19.513-24.679-24.679-13.297 13.297 24.679 24.679-19.513 19.513-21.993-21.993-13.297 13.297 21.993 21.993-19.513 19.513-4.348-4.348-13.297 13.297 4.348 4.348-3.617 3.617 13.297 13.297 3.617-3.617 19.513 19.513-18.729 18.729 13.297 13.297 18.729-18.729 19.513 19.513-18.729 18.729 13.297 13.297 18.729-18.729 19.513 19.513-3.617 3.617 13.297 13.297 3.617-3.617 4.348 4.348 13.297-13.297-4.348-4.348 19.513-19.513 21.993 21.993 13.297-13.297-21.993-21.993 19.513-19.513zm-155.919-51.272-19.513-19.513 19.513-19.513 19.513 19.513zm32.81-32.811-19.513-19.513 19.513-19.513 19.513 19.513zm32.81-32.81-19.513-19.513 19.513-19.513 19.513 19.513zm32.81-32.81-19.513-19.513 19.513-19.513 19.513 19.513zm-65.62 131.241-19.513-19.513 19.513-19.513 19.513 19.513zm32.81-32.811-19.513-19.513 19.513-19.513 19.513 19.513zm32.81-32.81-19.513-19.513 19.513-19.513 19.513 19.513zm32.81-32.81-19.513-19.513 19.513-19.513 19.513 19.513zm-65.62 131.241-19.513-19.513 19.513-19.513 19.513 19.513zm32.81-32.81-19.513-19.513 19.513-19.513 19.513 19.513zm32.81-32.81-19.513-19.513 19.513-19.513 19.513 19.513zm32.81-32.811-19.513-19.513 19.513-19.513 19.513 19.513z" fill="#fff"/><path d="m431.207 116.107-.007-.007c-49.917-49.903-131.114-49.91-181.031.007l-24.247 24.247c-49.91 49.91-49.903 131.108 0 181.024l.007.007c49.91 49.91 131.114 49.91 181.024 0l24.247-24.247c49.917-49.917 49.917-131.121.007-181.031zm-44.199 185.332c-38.914 38.914-102.22 38.914-141.134 0l-.007-.007c-38.907-38.92-38.914-102.22 0-141.134l24.247-24.247c38.914-38.914 102.22-38.913 141.14-.007l.007.007c38.913 38.913 38.907 102.227-.007 141.14z" fill="#f5dc6e"/><path d="m402.459 305.933 13.297-13.297-24.679-24.679 19.513-19.513 21.993 21.993 13.297-13.297-21.993-21.993 19.513-19.513 4.341 4.341 13.297-13.297-4.341-4.341 3.61-3.61-13.297-13.297-3.61 3.61-19.513-19.513 18.722-18.722-13.297-13.297-18.722 18.722-9.753-9.753-13.297 13.297 9.753 9.753-19.513 19.513-9.753-9.753-13.297 13.297 9.753 9.753-19.513 19.513-9.753-9.753-13.297 13.297 9.753 9.753-19.513 19.513-9.753-9.753-13.297 13.297 9.753 9.753-19.513 19.513-9.753-9.753-13.297 13.297 9.753 9.753-18.729 18.729 13.297 13.297 18.729-18.729 19.513 19.513-3.617 3.617 13.297 13.297 3.617-3.617 4.348 4.348 13.297-13.297-4.348-4.348 19.513-19.513 21.993 21.993 13.297-13.297-21.993-21.993 19.513-19.513zm-90.299 14.348-19.513-19.513 19.513-19.513 19.513 19.513zm32.81-32.81-19.513-19.513 19.513-19.513 19.513 19.513zm32.81-32.81-19.513-19.513 19.513-19.513 19.513 19.513zm32.81-32.811-19.513-19.513 19.513-19.513 19.513 19.513z" fill="#e7eaf5"/><path d="m431.2 297.137-24.247 24.247c-49.91 49.91-131.114 49.91-181.024 0l-.007-.007 19.945-19.945.007.007c38.913 38.913 102.22 38.913 141.134 0l24.247-24.247c38.914-38.914 38.92-102.227.007-141.14l-.007-.007 19.945-19.945.007.007c49.91 49.91 49.91 131.114-.007 181.03z" fill="#eebf36"/></g></g><g><path d="m262.969 135.96-38.659 13.358-13.365 38.667c14.371 14.371 37.661 14.371 52.032 0 14.363-14.364 14.363-37.654-.008-52.025z" fill="#e7eaf5"/><path d="m262.969 135.96-38.659 13.358 38.667 38.667c14.363-14.364 14.363-37.654-.008-52.025z" fill="#d9dced"/><path d="m222.408 59.507c-8.093-8.093-21.215-8.093-29.308 0s-8.093 21.215 0 29.308c-8.093-8.093-21.215-8.093-29.301-.008-8.093 8.093-8.093 21.215 0 29.308-8.093-8.093-21.215-8.093-29.308 0s-8.093 21.215 0 29.308l76.453 40.56 52.024-52.024z" fill="#d75e91"/><path d="m222.408 59.507c-8.093-8.093-21.215-8.093-29.308 0s-8.093 21.215 0 29.308c-8.093-8.093-21.215-8.093-29.301-.008l73.161 73.161 26.008-26.008z" fill="#bf2e70"/></g></g></svg>